<svg xmlns="http://www.w3.org/2000/svg" xmlns:xlink="http://www.w3.org/1999/xlink" width="500" zoomAndPan="magnify" viewBox="0 0 375 374.999991" height="500" preserveAspectRatio="xMidYMid meet" version="1.0"><defs><g/><clipPath id="92fd0c8768"><path d="M 22.703125 24.960938 L 352.296875 24.960938 L 352.296875 350.039062 L 22.703125 350.039062 Z M 22.703125 24.960938 " clip-rule="nonzero"/></clipPath><clipPath id="7412672fc3"><path d="M 39.953125 24.960938 L 335.046875 24.960938 C 339.621094 24.960938 344.007812 26.78125 347.246094 30.015625 C 350.480469 33.25 352.296875 37.636719 352.296875 42.210938 L 352.296875 332.789062 C 352.296875 337.363281 350.480469 341.75 347.246094 344.984375 C 344.007812 348.21875 339.621094 350.039062 335.046875 350.039062 L 39.953125 350.039062 C 35.378906 350.039062 30.992188 348.21875 27.753906 344.984375 C 24.519531 341.75 22.703125 337.363281 22.703125 332.789062 L 22.703125 42.210938 C 22.703125 37.636719 24.519531 33.25 27.753906 30.015625 C 30.992188 26.78125 35.378906 24.960938 39.953125 24.960938 Z M 39.953125 24.960938 " clip-rule="nonzero"/></clipPath></defs><rect x="-37.5" width="450" fill="#ffffff" y="-37.499999" height="449.999989" fill-opacity="1"/><rect x="-37.5" width="450" fill="#ffffff" y="-37.499999" height="449.999989" fill-opacity="1"/><g clip-path="url(#92fd0c8768)"><g clip-path="url(#7412672fc3)"><path fill="#000000" d="M 22.703125 24.960938 L 352.296875 24.960938 L 352.296875 350.039062 L 22.703125 350.039062 Z M 22.703125 24.960938 " fill-opacity="1" fill-rule="nonzero"/></g></g><g fill="#ffffff" fill-opacity="1"><g transform="translate(147.168451, 274.711806)"><g><path d="M 11.28125 0.359375 C 9.519531 0.359375 7.953125 0.144531 6.578125 -0.28125 C 5.203125 -0.71875 4.054688 -1.289062 3.140625 -2 C 2.222656 -2.707031 1.519531 -3.484375 1.03125 -4.328125 L 3.796875 -7.71875 L 4.234375 -7.71875 C 4.992188 -6.570312 5.960938 -5.660156 7.140625 -4.984375 C 8.328125 -4.316406 9.707031 -3.984375 11.28125 -3.984375 C 12.625 -3.984375 13.640625 -4.265625 14.328125 -4.828125 C 15.015625 -5.398438 15.359375 -6.1875 15.359375 -7.1875 C 15.359375 -7.789062 15.242188 -8.296875 15.015625 -8.703125 C 14.796875 -9.109375 14.429688 -9.457031 13.921875 -9.75 C 13.410156 -10.039062 12.722656 -10.289062 11.859375 -10.5 L 8.578125 -11.25 C 6.296875 -11.769531 4.59375 -12.632812 3.46875 -13.84375 C 2.351562 -15.0625 1.796875 -16.640625 1.796875 -18.578125 C 1.796875 -20.015625 2.15625 -21.28125 2.875 -22.375 C 3.59375 -23.46875 4.640625 -24.3125 6.015625 -24.90625 C 7.390625 -25.507812 9.035156 -25.8125 10.953125 -25.8125 C 12.910156 -25.8125 14.585938 -25.550781 15.984375 -25.03125 C 17.390625 -24.519531 18.570312 -23.734375 19.53125 -22.671875 L 17.046875 -19.25 L 16.609375 -19.25 C 15.890625 -20.007812 15.066406 -20.578125 14.140625 -20.953125 C 13.210938 -21.328125 12.148438 -21.515625 10.953125 -21.515625 C 9.566406 -21.515625 8.515625 -21.269531 7.796875 -20.78125 C 7.078125 -20.300781 6.71875 -19.628906 6.71875 -18.765625 C 6.71875 -17.960938 6.96875 -17.320312 7.46875 -16.84375 C 7.976562 -16.375 8.851562 -16.003906 10.09375 -15.734375 L 13.4375 -15.046875 C 15.914062 -14.523438 17.707031 -13.640625 18.8125 -12.390625 C 19.925781 -11.140625 20.484375 -9.507812 20.484375 -7.5 C 20.484375 -5.914062 20.140625 -4.53125 19.453125 -3.34375 C 18.773438 -2.164062 17.742188 -1.253906 16.359375 -0.609375 C 14.984375 0.0351562 13.289062 0.359375 11.28125 0.359375 Z M 11.28125 0.359375 "/></g></g></g><g fill="#ffffff" fill-opacity="1"><g transform="translate(169.036942, 274.711806)"><g><path d="M 18.984375 -8.515625 L 6.640625 -8.515625 C 6.773438 -6.835938 7.25 -5.617188 8.0625 -4.859375 C 8.875 -4.097656 9.984375 -3.71875 11.390625 -3.71875 C 12.492188 -3.71875 13.382812 -3.925781 14.0625 -4.34375 C 14.75 -4.757812 15.300781 -5.382812 15.71875 -6.21875 L 16.09375 -6.21875 L 19.296875 -4.15625 C 18.660156 -2.8125 17.710938 -1.722656 16.453125 -0.890625 C 15.191406 -0.0546875 13.503906 0.359375 11.390625 0.359375 C 9.398438 0.359375 7.679688 -0.015625 6.234375 -0.765625 C 4.796875 -1.515625 3.679688 -2.632812 2.890625 -4.125 C 2.109375 -5.625 1.71875 -7.445312 1.71875 -9.59375 C 1.71875 -11.769531 2.128906 -13.609375 2.953125 -15.109375 C 3.785156 -16.609375 4.898438 -17.722656 6.296875 -18.453125 C 7.703125 -19.191406 9.28125 -19.5625 11.03125 -19.5625 C 13.75 -19.5625 15.832031 -18.84375 17.28125 -17.40625 C 18.726562 -15.96875 19.453125 -13.859375 19.453125 -11.078125 C 19.453125 -10.066406 19.414062 -9.28125 19.34375 -8.71875 Z M 14.828125 -11.625 C 14.785156 -13.09375 14.445312 -14.160156 13.8125 -14.828125 C 13.175781 -15.492188 12.25 -15.828125 11.03125 -15.828125 C 8.59375 -15.828125 7.160156 -14.425781 6.734375 -11.625 Z M 14.828125 -11.625 "/></g></g></g><g fill="#ffffff" fill-opacity="1"><g transform="translate(189.913003, 274.711806)"><g><path d="M 2.765625 7.78125 L 2.765625 -19.203125 L 7.59375 -19.203125 L 7.59375 -16.703125 L 7.953125 -16.625 C 8.523438 -17.601562 9.285156 -18.335938 10.234375 -18.828125 C 11.191406 -19.316406 12.304688 -19.5625 13.578125 -19.5625 C 15.117188 -19.5625 16.46875 -19.195312 17.625 -18.46875 C 18.78125 -17.738281 19.679688 -16.628906 20.328125 -15.140625 C 20.972656 -13.648438 21.296875 -11.800781 21.296875 -9.59375 C 21.296875 -7.394531 20.953125 -5.550781 20.265625 -4.0625 C 19.585938 -2.582031 18.644531 -1.472656 17.4375 -0.734375 C 16.238281 -0.00390625 14.847656 0.359375 13.265625 0.359375 C 12.066406 0.359375 11.03125 0.160156 10.15625 -0.234375 C 9.289062 -0.628906 8.554688 -1.253906 7.953125 -2.109375 L 7.59375 -2.03125 L 7.59375 7.78125 Z M 11.921875 -3.71875 C 13.359375 -3.71875 14.445312 -4.1875 15.1875 -5.125 C 15.9375 -6.070312 16.3125 -7.5625 16.3125 -9.59375 C 16.3125 -11.625 15.9375 -13.113281 15.1875 -14.0625 C 14.445312 -15.007812 13.359375 -15.484375 11.921875 -15.484375 C 10.578125 -15.484375 9.507812 -14.992188 8.71875 -14.015625 C 7.925781 -13.035156 7.53125 -11.5625 7.53125 -9.59375 C 7.53125 -7.632812 7.925781 -6.164062 8.71875 -5.1875 C 9.507812 -4.207031 10.578125 -3.71875 11.921875 -3.71875 Z M 11.921875 -3.71875 "/></g></g></g><g fill="#ffffff" fill-opacity="1"><g transform="translate(212.913234, 274.711806)"><g><path d="M 13.25 -4.578125 L 14.5 -1.015625 C 13.976562 -0.578125 13.320312 -0.238281 12.53125 0 C 11.738281 0.238281 10.847656 0.359375 9.859375 0.359375 C 7.773438 0.359375 6.191406 -0.203125 5.109375 -1.328125 C 4.035156 -2.460938 3.5 -4.109375 3.5 -6.265625 L 3.5 -15.390625 L 0.578125 -15.390625 L 0.578125 -19.21875 L 3.5 -19.21875 L 3.5 -22.96875 L 8.328125 -23.75 L 8.328125 -19.21875 L 13.765625 -19.21875 L 13.765625 -15.390625 L 8.328125 -15.390625 L 8.328125 -6.609375 C 8.328125 -5.660156 8.519531 -4.96875 8.90625 -4.53125 C 9.300781 -4.09375 9.878906 -3.875 10.640625 -3.875 C 11.492188 -3.875 12.242188 -4.109375 12.890625 -4.578125 Z M 13.25 -4.578125 "/></g></g></g><g fill="#ffffff" fill-opacity="1"><g transform="translate(125.632995, 215.136066)"><g><path d="M 4.03125 -6.59375 C 4.03125 -11.175781 4.53125 -15.035156 5.53125 -18.171875 C 6.539062 -21.316406 8.179688 -24.1875 10.453125 -26.78125 C 12.722656 -29.375 15.941406 -32.171875 20.109375 -35.171875 L 31.1875 -43.171875 C 34.21875 -45.328125 36.570312 -47.203125 38.25 -48.796875 C 39.9375 -50.390625 41.207031 -52.054688 42.0625 -53.796875 C 42.914062 -55.535156 43.34375 -57.523438 43.34375 -59.765625 C 43.34375 -63.128906 42.316406 -65.726562 40.265625 -67.5625 C 38.222656 -69.40625 35.160156 -70.328125 31.078125 -70.328125 C 27.140625 -70.328125 23.632812 -69.390625 20.5625 -67.515625 C 17.5 -65.640625 14.960938 -63.070312 12.953125 -59.8125 L 11.875 -59.53125 L 2.84375 -69.640625 C 5.789062 -74.035156 9.640625 -77.566406 14.390625 -80.234375 C 19.148438 -82.910156 24.921875 -84.25 31.703125 -84.25 C 37.910156 -84.25 43.109375 -83.222656 47.296875 -81.171875 C 51.484375 -79.128906 54.585938 -76.335938 56.609375 -72.796875 C 58.640625 -69.253906 59.65625 -65.191406 59.65625 -60.609375 C 59.65625 -56.671875 58.828125 -53.070312 57.171875 -49.8125 C 55.523438 -46.5625 53.242188 -43.550781 50.328125 -40.78125 C 47.410156 -38.019531 43.679688 -35.050781 39.140625 -31.875 L 29.3125 -25 C 26.351562 -22.875 24.285156 -20.988281 23.109375 -19.34375 C 21.941406 -17.695312 21.359375 -15.832031 21.359375 -13.75 L 58.859375 -13.75 L 58.859375 0 L 4.03125 0 Z M 4.03125 -6.59375 "/></g></g></g><g fill="#ffffff" fill-opacity="1"><g transform="translate(190.447845, 215.136066)"><g><path d="M 27.609375 0 L 10.84375 0 L 39.484375 -68.0625 L 39.140625 -69.25 L 2.265625 -69.25 L 2.265625 -83.046875 L 56.125 -83.046875 L 56.125 -68.515625 Z M 27.609375 0 "/></g></g></g></svg>