<svg xmlns="http://www.w3.org/2000/svg" xmlns:xlink="http://www.w3.org/1999/xlink" width="500" zoomAndPan="magnify" viewBox="0 0 375 374.999991" height="500" preserveAspectRatio="xMidYMid meet" version="1.0"><defs><g/><clipPath id="bffb86cff9"><path d="M 22.703125 24.960938 L 352.296875 24.960938 L 352.296875 350.039062 L 22.703125 350.039062 Z M 22.703125 24.960938 " clip-rule="nonzero"/></clipPath><clipPath id="a817987078"><path d="M 39.953125 24.960938 L 335.046875 24.960938 C 339.621094 24.960938 344.007812 26.78125 347.246094 30.015625 C 350.480469 33.25 352.296875 37.636719 352.296875 42.210938 L 352.296875 332.789062 C 352.296875 337.363281 350.480469 341.75 347.246094 344.984375 C 344.007812 348.21875 339.621094 350.039062 335.046875 350.039062 L 39.953125 350.039062 C 35.378906 350.039062 30.992188 348.21875 27.753906 344.984375 C 24.519531 341.75 22.703125 337.363281 22.703125 332.789062 L 22.703125 42.210938 C 22.703125 37.636719 24.519531 33.25 27.753906 30.015625 C 30.992188 26.78125 35.378906 24.960938 39.953125 24.960938 Z M 39.953125 24.960938 " clip-rule="nonzero"/></clipPath></defs><rect x="-37.5" width="450" fill="#ffffff" y="-37.499999" height="449.999989" fill-opacity="1"/><rect x="-37.5" width="450" fill="#ffffff" y="-37.499999" height="449.999989" fill-opacity="1"/><g clip-path="url(#bffb86cff9)"><g clip-path="url(#a817987078)"><path fill="#000000" d="M 22.703125 24.960938 L 352.296875 24.960938 L 352.296875 350.039062 L 22.703125 350.039062 Z M 22.703125 24.960938 " fill-opacity="1" fill-rule="nonzero"/></g></g><g fill="#ffffff" fill-opacity="1"><g transform="translate(147.168451, 274.711863)"><g><path d="M 11.28125 0.359375 C 9.519531 0.359375 7.953125 0.144531 6.578125 -0.28125 C 5.203125 -0.71875 4.054688 -1.289062 3.140625 -2 C 2.222656 -2.707031 1.519531 -3.484375 1.03125 -4.328125 L 3.796875 -7.71875 L 4.234375 -7.71875 C 4.992188 -6.570312 5.960938 -5.660156 7.140625 -4.984375 C 8.328125 -4.316406 9.707031 -3.984375 11.28125 -3.984375 C 12.625 -3.984375 13.640625 -4.265625 14.328125 -4.828125 C 15.015625 -5.398438 15.359375 -6.1875 15.359375 -7.1875 C 15.359375 -7.789062 15.242188 -8.296875 15.015625 -8.703125 C 14.796875 -9.109375 14.429688 -9.457031 13.921875 -9.75 C 13.410156 -10.039062 12.722656 -10.289062 11.859375 -10.5 L 8.578125 -11.25 C 6.296875 -11.769531 4.59375 -12.632812 3.46875 -13.84375 C 2.351562 -15.0625 1.796875 -16.640625 1.796875 -18.578125 C 1.796875 -20.015625 2.15625 -21.28125 2.875 -22.375 C 3.59375 -23.46875 4.640625 -24.3125 6.015625 -24.90625 C 7.390625 -25.507812 9.035156 -25.8125 10.953125 -25.8125 C 12.910156 -25.8125 14.585938 -25.550781 15.984375 -25.03125 C 17.390625 -24.519531 18.570312 -23.734375 19.53125 -22.671875 L 17.046875 -19.25 L 16.609375 -19.25 C 15.890625 -20.007812 15.066406 -20.578125 14.140625 -20.953125 C 13.210938 -21.328125 12.148438 -21.515625 10.953125 -21.515625 C 9.566406 -21.515625 8.515625 -21.269531 7.796875 -20.78125 C 7.078125 -20.300781 6.71875 -19.628906 6.71875 -18.765625 C 6.71875 -17.960938 6.96875 -17.320312 7.46875 -16.84375 C 7.976562 -16.375 8.851562 -16.003906 10.09375 -15.734375 L 13.4375 -15.046875 C 15.914062 -14.523438 17.707031 -13.640625 18.8125 -12.390625 C 19.925781 -11.140625 20.484375 -9.507812 20.484375 -7.5 C 20.484375 -5.914062 20.140625 -4.53125 19.453125 -3.34375 C 18.773438 -2.164062 17.742188 -1.253906 16.359375 -0.609375 C 14.984375 0.0351562 13.289062 0.359375 11.28125 0.359375 Z M 11.28125 0.359375 "/></g></g></g><g fill="#ffffff" fill-opacity="1"><g transform="translate(169.036942, 274.711863)"><g><path d="M 18.984375 -8.515625 L 6.640625 -8.515625 C 6.773438 -6.835938 7.25 -5.617188 8.0625 -4.859375 C 8.875 -4.097656 9.984375 -3.71875 11.390625 -3.71875 C 12.492188 -3.71875 13.382812 -3.925781 14.0625 -4.34375 C 14.75 -4.757812 15.300781 -5.382812 15.71875 -6.21875 L 16.09375 -6.21875 L 19.296875 -4.15625 C 18.660156 -2.8125 17.710938 -1.722656 16.453125 -0.890625 C 15.191406 -0.0546875 13.503906 0.359375 11.390625 0.359375 C 9.398438 0.359375 7.679688 -0.015625 6.234375 -0.765625 C 4.796875 -1.515625 3.679688 -2.632812 2.890625 -4.125 C 2.109375 -5.625 1.71875 -7.445312 1.71875 -9.59375 C 1.71875 -11.769531 2.128906 -13.609375 2.953125 -15.109375 C 3.785156 -16.609375 4.898438 -17.722656 6.296875 -18.453125 C 7.703125 -19.191406 9.28125 -19.5625 11.03125 -19.5625 C 13.75 -19.5625 15.832031 -18.84375 17.28125 -17.40625 C 18.726562 -15.96875 19.453125 -13.859375 19.453125 -11.078125 C 19.453125 -10.066406 19.414062 -9.28125 19.34375 -8.71875 Z M 14.828125 -11.625 C 14.785156 -13.09375 14.445312 -14.160156 13.8125 -14.828125 C 13.175781 -15.492188 12.25 -15.828125 11.03125 -15.828125 C 8.59375 -15.828125 7.160156 -14.425781 6.734375 -11.625 Z M 14.828125 -11.625 "/></g></g></g><g fill="#ffffff" fill-opacity="1"><g transform="translate(189.913003, 274.711863)"><g><path d="M 2.765625 7.78125 L 2.765625 -19.203125 L 7.59375 -19.203125 L 7.59375 -16.703125 L 7.953125 -16.625 C 8.523438 -17.601562 9.285156 -18.335938 10.234375 -18.828125 C 11.191406 -19.316406 12.304688 -19.5625 13.578125 -19.5625 C 15.117188 -19.5625 16.46875 -19.195312 17.625 -18.46875 C 18.78125 -17.738281 19.679688 -16.628906 20.328125 -15.140625 C 20.972656 -13.648438 21.296875 -11.800781 21.296875 -9.59375 C 21.296875 -7.394531 20.953125 -5.550781 20.265625 -4.0625 C 19.585938 -2.582031 18.644531 -1.472656 17.4375 -0.734375 C 16.238281 -0.00390625 14.847656 0.359375 13.265625 0.359375 C 12.066406 0.359375 11.03125 0.160156 10.15625 -0.234375 C 9.289062 -0.628906 8.554688 -1.253906 7.953125 -2.109375 L 7.59375 -2.03125 L 7.59375 7.78125 Z M 11.921875 -3.71875 C 13.359375 -3.71875 14.445312 -4.1875 15.1875 -5.125 C 15.9375 -6.070312 16.3125 -7.5625 16.3125 -9.59375 C 16.3125 -11.625 15.9375 -13.113281 15.1875 -14.0625 C 14.445312 -15.007812 13.359375 -15.484375 11.921875 -15.484375 C 10.578125 -15.484375 9.507812 -14.992188 8.71875 -14.015625 C 7.925781 -13.035156 7.53125 -11.5625 7.53125 -9.59375 C 7.53125 -7.632812 7.925781 -6.164062 8.71875 -5.1875 C 9.507812 -4.207031 10.578125 -3.71875 11.921875 -3.71875 Z M 11.921875 -3.71875 "/></g></g></g><g fill="#ffffff" fill-opacity="1"><g transform="translate(212.913234, 274.711863)"><g><path d="M 13.25 -4.578125 L 14.5 -1.015625 C 13.976562 -0.578125 13.320312 -0.238281 12.53125 0 C 11.738281 0.238281 10.847656 0.359375 9.859375 0.359375 C 7.773438 0.359375 6.191406 -0.203125 5.109375 -1.328125 C 4.035156 -2.460938 3.5 -4.109375 3.5 -6.265625 L 3.5 -15.390625 L 0.578125 -15.390625 L 0.578125 -19.21875 L 3.5 -19.21875 L 3.5 -22.96875 L 8.328125 -23.75 L 8.328125 -19.21875 L 13.765625 -19.21875 L 13.765625 -15.390625 L 8.328125 -15.390625 L 8.328125 -6.609375 C 8.328125 -5.660156 8.519531 -4.96875 8.90625 -4.53125 C 9.300781 -4.09375 9.878906 -3.875 10.640625 -3.875 C 11.492188 -3.875 12.242188 -4.109375 12.890625 -4.578125 Z M 13.25 -4.578125 "/></g></g></g><g fill="#ffffff" fill-opacity="1"><g transform="translate(112.54378, 215.135987)"><g><path d="M 33.859375 1.1875 C 24.960938 1.1875 17.898438 -0.691406 12.671875 -4.453125 C 7.441406 -8.222656 4.128906 -13.554688 2.734375 -20.453125 L 15.171875 -26.25 L 16.46875 -26.015625 C 17.875 -21.429688 19.875 -18.085938 22.46875 -15.984375 C 25.0625 -13.890625 28.671875 -12.84375 33.296875 -12.84375 C 37.765625 -12.84375 41.171875 -13.882812 43.515625 -15.96875 C 45.859375 -18.050781 47.03125 -21.078125 47.03125 -25.046875 C 47.03125 -28.953125 45.863281 -31.945312 43.53125 -34.03125 C 41.207031 -36.113281 37.796875 -37.15625 33.296875 -37.15625 L 20.796875 -37.15625 L 20.796875 -49.9375 L 31.703125 -49.9375 C 35.410156 -49.9375 38.363281 -50.863281 40.5625 -52.71875 C 42.757812 -54.570312 43.859375 -57.222656 43.859375 -60.671875 C 43.859375 -64.078125 42.820312 -66.640625 40.75 -68.359375 C 38.6875 -70.085938 35.835938 -70.953125 32.203125 -70.953125 C 28.492188 -70.953125 25.207031 -70.082031 22.34375 -68.34375 C 19.488281 -66.601562 17.191406 -64.253906 15.453125 -61.296875 L 14.140625 -61.0625 L 5.515625 -71.125 C 8.429688 -75.0625 12.175781 -78.234375 16.75 -80.640625 C 21.332031 -83.046875 26.789062 -84.25 33.125 -84.25 C 41.832031 -84.25 48.476562 -82.429688 53.0625 -78.796875 C 57.644531 -75.160156 59.9375 -70.046875 59.9375 -63.453125 C 59.9375 -59.472656 59.003906 -56.070312 57.140625 -53.25 C 55.285156 -50.4375 52.617188 -48.003906 49.140625 -45.953125 L 49.140625 -44.765625 C 58.722656 -41.390625 63.515625 -34.570312 63.515625 -24.3125 C 63.515625 -19.164062 62.414062 -14.675781 60.21875 -10.84375 C 58.019531 -7.019531 54.703125 -4.054688 50.265625 -1.953125 C 45.835938 0.140625 40.367188 1.1875 33.859375 1.1875 Z M 33.859375 1.1875 "/></g></g></g><g fill="#ffffff" fill-opacity="1"><g transform="translate(181.278176, 215.135987)"><g><path d="M 40.5625 1.1875 C 33.78125 1.1875 27.878906 -0.316406 22.859375 -3.328125 C 17.847656 -6.335938 13.945312 -11.019531 11.15625 -17.375 C 8.375 -23.738281 6.984375 -31.789062 6.984375 -41.53125 C 6.984375 -51.257812 8.375 -59.304688 11.15625 -65.671875 C 13.945312 -72.035156 17.847656 -76.722656 22.859375 -79.734375 C 27.878906 -82.742188 33.78125 -84.25 40.5625 -84.25 C 47.375 -84.25 53.289062 -82.742188 58.3125 -79.734375 C 63.332031 -76.722656 67.234375 -72.035156 70.015625 -65.671875 C 72.796875 -59.304688 74.1875 -51.257812 74.1875 -41.53125 C 74.1875 -31.789062 72.796875 -23.738281 70.015625 -17.375 C 67.234375 -11.019531 63.332031 -6.335938 58.3125 -3.328125 C 53.289062 -0.316406 47.375 1.1875 40.5625 1.1875 Z M 40.5625 -12.71875 C 44.269531 -12.71875 47.375 -13.617188 49.875 -15.421875 C 52.375 -17.222656 54.296875 -20.242188 55.640625 -24.484375 C 56.984375 -28.722656 57.65625 -34.40625 57.65625 -41.53125 C 57.65625 -48.644531 56.984375 -54.320312 55.640625 -58.5625 C 54.296875 -62.8125 52.375 -65.832031 49.875 -67.625 C 47.375 -69.425781 44.269531 -70.328125 40.5625 -70.328125 C 36.851562 -70.328125 33.75 -69.425781 31.25 -67.625 C 28.75 -65.832031 26.828125 -62.8125 25.484375 -58.5625 C 24.140625 -54.320312 23.46875 -48.644531 23.46875 -41.53125 C 23.46875 -34.40625 24.140625 -28.722656 25.484375 -24.484375 C 26.828125 -20.242188 28.75 -17.222656 31.25 -15.421875 C 33.75 -13.617188 36.851562 -12.71875 40.5625 -12.71875 Z M 40.5625 -12.71875 "/></g></g></g></svg>