<svg xmlns="http://www.w3.org/2000/svg" xmlns:xlink="http://www.w3.org/1999/xlink" width="500" zoomAndPan="magnify" viewBox="0 0 375 374.999991" height="500" preserveAspectRatio="xMidYMid meet" version="1.0"><defs><g/><clipPath id="b57efbef46"><path d="M 22.703125 24.960938 L 352.296875 24.960938 L 352.296875 350.039062 L 22.703125 350.039062 Z M 22.703125 24.960938 " clip-rule="nonzero"/></clipPath><clipPath id="6961750eb0"><path d="M 39.953125 24.960938 L 335.046875 24.960938 C 339.621094 24.960938 344.007812 26.78125 347.246094 30.015625 C 350.480469 33.25 352.296875 37.636719 352.296875 42.210938 L 352.296875 332.789062 C 352.296875 337.363281 350.480469 341.75 347.246094 344.984375 C 344.007812 348.21875 339.621094 350.039062 335.046875 350.039062 L 39.953125 350.039062 C 35.378906 350.039062 30.992188 348.21875 27.753906 344.984375 C 24.519531 341.75 22.703125 337.363281 22.703125 332.789062 L 22.703125 42.210938 C 22.703125 37.636719 24.519531 33.25 27.753906 30.015625 C 30.992188 26.78125 35.378906 24.960938 39.953125 24.960938 Z M 39.953125 24.960938 " clip-rule="nonzero"/></clipPath></defs><rect x="-37.5" width="450" fill="#ffffff" y="-37.499999" height="449.999989" fill-opacity="1"/><rect x="-37.5" width="450" fill="#ffffff" y="-37.499999" height="449.999989" fill-opacity="1"/><g clip-path="url(#b57efbef46)"><g clip-path="url(#6961750eb0)"><path fill="#000000" d="M 22.703125 24.960938 L 352.296875 24.960938 L 352.296875 350.039062 L 22.703125 350.039062 Z M 22.703125 24.960938 " fill-opacity="1" fill-rule="nonzero"/></g></g><g fill="#ffffff" fill-opacity="1"><g transform="translate(156.268221, 274.711806)"><g><path d="M 13.875 0.359375 C 11.539062 0.359375 9.484375 -0.113281 7.703125 -1.0625 C 5.921875 -2.007812 4.523438 -3.460938 3.515625 -5.421875 C 2.503906 -7.378906 2 -9.816406 2 -12.734375 C 2 -15.640625 2.503906 -18.070312 3.515625 -20.03125 C 4.523438 -21.988281 5.921875 -23.441406 7.703125 -24.390625 C 9.484375 -25.335938 11.539062 -25.8125 13.875 -25.8125 C 16.207031 -25.8125 18.257812 -25.335938 20.03125 -24.390625 C 21.8125 -23.453125 23.203125 -22 24.203125 -20.03125 C 25.210938 -18.070312 25.71875 -15.640625 25.71875 -12.734375 C 25.71875 -9.816406 25.210938 -7.375 24.203125 -5.40625 C 23.203125 -3.445312 21.8125 -1.992188 20.03125 -1.046875 C 18.257812 -0.109375 16.207031 0.359375 13.875 0.359375 Z M 13.875 -4 C 16.03125 -4 17.675781 -4.691406 18.8125 -6.078125 C 19.957031 -7.472656 20.53125 -9.691406 20.53125 -12.734375 C 20.53125 -15.765625 19.957031 -17.976562 18.8125 -19.375 C 17.675781 -20.769531 16.03125 -21.46875 13.875 -21.46875 C 11.707031 -21.46875 10.050781 -20.769531 8.90625 -19.375 C 7.757812 -17.976562 7.1875 -15.765625 7.1875 -12.734375 C 7.1875 -9.691406 7.757812 -7.472656 8.90625 -6.078125 C 10.050781 -4.691406 11.707031 -4 13.875 -4 Z M 13.875 -4 "/></g></g></g><g fill="#ffffff" fill-opacity="1"><g transform="translate(184.004303, 274.711806)"><g><path d="M 11.1875 0.359375 C 9.332031 0.359375 7.691406 -0.0234375 6.265625 -0.796875 C 4.835938 -1.566406 3.722656 -2.695312 2.921875 -4.1875 C 2.117188 -5.6875 1.71875 -7.488281 1.71875 -9.59375 C 1.71875 -11.707031 2.117188 -13.507812 2.921875 -15 C 3.722656 -16.5 4.832031 -17.632812 6.25 -18.40625 C 7.664062 -19.175781 9.285156 -19.5625 11.109375 -19.5625 C 15.160156 -19.5625 17.753906 -18.097656 18.890625 -15.171875 L 15.578125 -12.796875 L 15.21875 -12.796875 C 14.820312 -13.703125 14.304688 -14.375 13.671875 -14.8125 C 13.046875 -15.257812 12.191406 -15.484375 11.109375 -15.484375 C 9.710938 -15.484375 8.625 -15 7.84375 -14.03125 C 7.070312 -13.070312 6.6875 -11.59375 6.6875 -9.59375 C 6.6875 -7.625 7.078125 -6.148438 7.859375 -5.171875 C 8.648438 -4.203125 9.757812 -3.71875 11.1875 -3.71875 C 12.238281 -3.71875 13.125 -4 13.84375 -4.5625 C 14.570312 -5.132812 15.09375 -5.945312 15.40625 -7 L 15.78125 -7.03125 L 19.203125 -5.15625 C 18.710938 -3.53125 17.804688 -2.203125 16.484375 -1.171875 C 15.171875 -0.148438 13.40625 0.359375 11.1875 0.359375 Z M 11.1875 0.359375 "/></g></g></g><g fill="#ffffff" fill-opacity="1"><g transform="translate(203.800869, 274.711806)"><g><path d="M 13.25 -4.578125 L 14.5 -1.015625 C 13.976562 -0.578125 13.320312 -0.238281 12.53125 0 C 11.738281 0.238281 10.847656 0.359375 9.859375 0.359375 C 7.773438 0.359375 6.191406 -0.203125 5.109375 -1.328125 C 4.035156 -2.460938 3.5 -4.109375 3.5 -6.265625 L 3.5 -15.390625 L 0.578125 -15.390625 L 0.578125 -19.21875 L 3.5 -19.21875 L 3.5 -22.96875 L 8.328125 -23.75 L 8.328125 -19.21875 L 13.765625 -19.21875 L 13.765625 -15.390625 L 8.328125 -15.390625 L 8.328125 -6.609375 C 8.328125 -5.660156 8.519531 -4.96875 8.90625 -4.53125 C 9.300781 -4.09375 9.878906 -3.875 10.640625 -3.875 C 11.492188 -3.875 12.242188 -4.109375 12.890625 -4.578125 Z M 13.25 -4.578125 "/></g></g></g><g fill="#ffffff" fill-opacity="1"><g transform="translate(112.54378, 215.136102)"><g><path d="M 40.5625 1.1875 C 33.78125 1.1875 27.878906 -0.316406 22.859375 -3.328125 C 17.847656 -6.335938 13.945312 -11.019531 11.15625 -17.375 C 8.375 -23.738281 6.984375 -31.789062 6.984375 -41.53125 C 6.984375 -51.257812 8.375 -59.304688 11.15625 -65.671875 C 13.945312 -72.035156 17.847656 -76.722656 22.859375 -79.734375 C 27.878906 -82.742188 33.78125 -84.25 40.5625 -84.25 C 47.375 -84.25 53.289062 -82.742188 58.3125 -79.734375 C 63.332031 -76.722656 67.234375 -72.035156 70.015625 -65.671875 C 72.796875 -59.304688 74.1875 -51.257812 74.1875 -41.53125 C 74.1875 -31.789062 72.796875 -23.738281 70.015625 -17.375 C 67.234375 -11.019531 63.332031 -6.335938 58.3125 -3.328125 C 53.289062 -0.316406 47.375 1.1875 40.5625 1.1875 Z M 40.5625 -12.71875 C 44.269531 -12.71875 47.375 -13.617188 49.875 -15.421875 C 52.375 -17.222656 54.296875 -20.242188 55.640625 -24.484375 C 56.984375 -28.722656 57.65625 -34.40625 57.65625 -41.53125 C 57.65625 -48.644531 56.984375 -54.320312 55.640625 -58.5625 C 54.296875 -62.8125 52.375 -65.832031 49.875 -67.625 C 47.375 -69.425781 44.269531 -70.328125 40.5625 -70.328125 C 36.851562 -70.328125 33.75 -69.425781 31.25 -67.625 C 28.75 -65.832031 26.828125 -62.8125 25.484375 -58.5625 C 24.140625 -54.320312 23.46875 -48.644531 23.46875 -41.53125 C 23.46875 -34.40625 24.140625 -28.722656 25.484375 -24.484375 C 26.828125 -20.242188 28.75 -17.222656 31.25 -15.421875 C 33.75 -13.617188 36.851562 -12.71875 40.5625 -12.71875 Z M 40.5625 -12.71875 "/></g></g></g><g fill="#ffffff" fill-opacity="1"><g transform="translate(193.718551, 215.136102)"><g><path d="M 33.859375 1.1875 C 24.960938 1.1875 17.898438 -0.691406 12.671875 -4.453125 C 7.441406 -8.222656 4.128906 -13.554688 2.734375 -20.453125 L 15.171875 -26.25 L 16.46875 -26.015625 C 17.875 -21.429688 19.875 -18.085938 22.46875 -15.984375 C 25.0625 -13.890625 28.671875 -12.84375 33.296875 -12.84375 C 37.765625 -12.84375 41.171875 -13.882812 43.515625 -15.96875 C 45.859375 -18.050781 47.03125 -21.078125 47.03125 -25.046875 C 47.03125 -28.953125 45.863281 -31.945312 43.53125 -34.03125 C 41.207031 -36.113281 37.796875 -37.15625 33.296875 -37.15625 L 20.796875 -37.15625 L 20.796875 -49.9375 L 31.703125 -49.9375 C 35.410156 -49.9375 38.363281 -50.863281 40.5625 -52.71875 C 42.757812 -54.570312 43.859375 -57.222656 43.859375 -60.671875 C 43.859375 -64.078125 42.820312 -66.640625 40.75 -68.359375 C 38.6875 -70.085938 35.835938 -70.953125 32.203125 -70.953125 C 28.492188 -70.953125 25.207031 -70.082031 22.34375 -68.34375 C 19.488281 -66.601562 17.191406 -64.253906 15.453125 -61.296875 L 14.140625 -61.0625 L 5.515625 -71.125 C 8.429688 -75.0625 12.175781 -78.234375 16.75 -80.640625 C 21.332031 -83.046875 26.789062 -84.25 33.125 -84.25 C 41.832031 -84.25 48.476562 -82.429688 53.0625 -78.796875 C 57.644531 -75.160156 59.9375 -70.046875 59.9375 -63.453125 C 59.9375 -59.472656 59.003906 -56.070312 57.140625 -53.25 C 55.285156 -50.4375 52.617188 -48.003906 49.140625 -45.953125 L 49.140625 -44.765625 C 58.722656 -41.390625 63.515625 -34.570312 63.515625 -24.3125 C 63.515625 -19.164062 62.414062 -14.675781 60.21875 -10.84375 C 58.019531 -7.019531 54.703125 -4.054688 50.265625 -1.953125 C 45.835938 0.140625 40.367188 1.1875 33.859375 1.1875 Z M 33.859375 1.1875 "/></g></g></g></svg>